<?xml version="1.0" encoding="UTF-8" standalone="no"?>
<!-- Created with Inkscape (http://www.inkscape.org/) -->

<svg
   version="1.1"
   id="svg2"
   width="376"
   height="620"
   viewBox="0 0 376 620"
   xmlns="http://www.w3.org/2000/svg"
   xmlns:svg="http://www.w3.org/2000/svg">
  <defs
     id="defs6" />
  <g
     id="g8">
    <path
       style="fill:#000000"
       d="m 179.27966,400.88205 c -20.57332,-3.23364 -38.27001,-12.5781 -52.7324,-27.84451 -21.23912,-22.4199 -29.994382,-52.30043 -23.91294,-81.61162 7.41451,-35.73625 32.33306,-62.31582 67.17325,-71.65088 12.47483,-3.3425 31.69083,-3.15939 45.157,0.43031 47.98031,12.79018 77.07367,62.70752 64.82279,111.22057 -2.69495,10.67188 -10.74332,26.7332 -17.89331,35.70785 -12.38584,15.54669 -29.86094,26.97696 -48.65331,31.82358 -9.21393,2.37631 -25.29088,3.28745 -33.96108,1.9247 z m 28.25324,-5.53693 c 34.5126,-7.07819 62.23239,-35.5876 68.92189,-70.88518 2.39866,-12.65668 1.35407,-29.5101 -2.5743,-41.53402 -8.6365,-26.43452 -28.8278,-47.62691 -53.44584,-56.09569 -20.37106,-7.0078 -42.76622,-6.35745 -62.19391,1.80609 -22.30139,9.37108 -40.40729,29.54209 -48.73142,54.2896 -3.08563,9.17355 -3.1948,10.06699 -3.17694,26 0.0169,15.06679 0.25337,17.26408 2.72255,25.29659 6.34313,20.63489 18.60856,36.97299 36.64644,48.81468 18.18251,11.93663 41.25159,16.52867 61.83153,12.30793 z m -33.36889,-2.89413 c -31.64784,-7.264 -57.4177,-33.62995 -64.53236,-66.02507 -2.03331,-9.25825 -1.53861,-28.40053 0.98204,-38 3.53235,-13.45236 10.92018,-27.05113 19.85731,-36.55136 17.52383,-18.62794 37.02324,-27.09868 62.216,-27.02723 13.66793,0.0388 23.44631,2.4848 37.05374,9.26893 9.10371,4.53874 11.77725,6.50316 20.10486,14.77227 12.87876,12.78828 19.39186,24.2764 23.54933,41.53739 2.47206,10.26352 2.21219,28.64217 -0.55146,39 -7.82925,29.34321 -29.40066,52.05756 -58.60273,61.70774 -7.90908,2.61365 -31.1068,3.37617 -40.07673,1.31733 z m 11.57673,-5.52507 c 2.23943,-2.23943 2.7014,-7.8986 0.8,-9.8 -0.66,-0.66 -2.1799,-1.2 -3.37756,-1.2 -5.24915,0 -6.06744,7.10988 -0.92244,8.01477 1.98835,0.34971 2.57546,0.79516 1.74105,1.32098 -0.69242,0.43634 -2.15492,0.50897 -3.25,0.16141 -2.4569,-0.77979 -2.63671,1.0274 -0.24105,2.42274 2.46031,1.433 2.98989,1.34021 5.25,-0.9199 z m -3.82332,-6.55282 c 0.45227,-2.17211 2.22702,-2.30502 2.63295,-0.19718 0.2108,1.0946 -0.27967,1.75 -1.30963,1.75 -0.96073,0 -1.51197,-0.64684 -1.32332,-1.55282 z m 18.62332,7.35282 c 0.66,-0.66 1.2,-2.89963 1.2,-4.97695 0,-4.7033 -3.52542,-7.68259 -6.93294,-5.85894 -3.86996,2.07114 -1.53667,9.19755 2.50377,7.64709 1.0196,-0.39126 1.4422,-0.16073 1.16978,0.63812 -0.23459,0.68787 -1.39719,1.10989 -2.58356,0.93782 -2.09169,-0.30338 -2.84916,0.78741 -1.49038,2.14619 1.08654,1.08655 4.83982,0.76018 6.13333,-0.53333 z m -4.67802,-6.15302 c -1.21556,-1.46466 -0.52559,-2.64698 1.54469,-2.64698 1.4897,0 1.82538,2.57786 0.44664,3.42997 -0.48768,0.30141 -1.38378,-0.0509 -1.99133,-0.78299 z m 17.94376,4.31784 c 2.52345,-1.35051 2.58103,-6.94453 0.10298,-10.00479 -2.46317,-3.04189 -6.84954,-2.07993 -7.80095,1.71079 -0.77317,3.08056 1.88287,5.70179 4.82977,4.76648 0.99135,-0.31464 1.80246,-0.0917 1.80246,0.49531 0,0.58707 -1.125,1.06739 -2.5,1.06739 -2.61517,0 -3.40105,1.46975 -1.25,2.33772 1.96887,0.79446 2.74711,0.7342 4.81574,-0.3729 z m -5.06574,-7.46482 c 0,-1.02996 0.6554,-1.52043 1.75,-1.30963 2.10784,0.40593 1.97493,2.18068 -0.19718,2.63295 -0.90598,0.18865 -1.55282,-0.36259 -1.55282,-1.32332 z m -35.24734,1.56284 c 0.73861,-2.91532 1.15883,-5.48468 0.93382,-5.70969 -0.22501,-0.22501 -1.69377,0.0793 -3.26391,0.67629 -1.96416,0.74677 -2.46337,1.32731 -1.60014,1.86082 0.87677,0.54187 1.04756,2.07059 0.56704,5.07561 -1.01669,6.35803 1.65292,4.84746 3.36319,-1.90303 z m 33.05452,-9.17089 c 9.41481,-2.22298 22.33183,-9.31965 29.251,-16.07063 12.70267,-12.3939 19.15793,-27.22832 19.28661,-44.32132 0.0913,-12.12436 -1.30437,-18.38472 -6.55936,-29.42285 -3.16253,-6.64291 -5.62395,-10.02839 -11.64767,-16.02041 -11.89212,-11.82952 -24.50275,-17.55604 -41.13776,-18.68076 -37.19808,-2.515 -69.11959,29.5768 -66.60419,66.95951 1.79176,26.62838 20.22062,49.32944 46.10419,56.79212 7.03202,2.02745 24.18411,2.44621 31.30718,0.76434 z M 162.24074,358.8732 c -2.75,-1.72302 -7.3625,-5.43815 -10.25,-8.25586 l -5.25,-5.1231 v -36.20743 -36.20744 l 2.66373,-3.16566 c 2.91117,-3.45974 15.96045,-12.98779 17.7876,-12.98779 1.66044,0 37.09419,52.82192 43.01093,64.1174 l 5.03774,9.6174 -0.34326,-37.47575 -0.34326,-37.47574 5.96476,3.17918 c 3.28062,1.74855 8.3197,5.35553 11.19796,8.01552 l 5.2332,4.83633 -0.57536,37.76495 -0.57536,37.76496 -3.27934,3.40086 c -3.52023,3.65068 -14.56243,11.25489 -16.34343,11.25489 -2.1878,0 -36.78984,-51.15265 -42.93591,-63.47273 l -6,-12.02727 0.31455,32 c 0.17301,17.6 0.17301,34.60551 0,37.79001 l -0.31455,5.79001 z m -26.5,-10.02632 c 1.22974,-0.72882 1.09462,-1.00297 -0.75,-1.52161 -2.15985,-0.60727 -2.43326,-1.06055 -2.65363,-4.39935 -0.16094,-2.43828 -2.01598,-1.73299 -5.26032,2 -4.1478,4.77252 -3.40575,6.38645 2.52936,5.50122 2.54903,-0.3802 5.30959,-1.09131 6.13459,-1.58026 z m -7.5,-1.92096 c 0.33992,-0.55 1.04148,-1 1.55902,-1 0.51754,0 0.94098,0.45 0.94098,1 0,0.55 -0.70156,1 -1.55902,1 -0.85746,0 -1.2809,-0.45 -0.94098,-1 z m 135.9589,-9.24009 c 1.68995,-4.0192 1.18358,-4.95468 -2.02219,-3.73585 -2.14304,0.81479 -2.65127,0.59913 -3.62511,-1.53821 -1.43182,-3.1425 -2.19722,-3.12967 -3.65108,0.0612 -1.42538,3.12836 -1.49381,5.45295 -0.16052,5.45295 0.55,0 1,-0.675 1,-1.5 0,-0.825 0.45,-1.5 1,-1.5 0.55,0 1,0.45 1,1 0,0.55 0.94814,1 2.10699,1 1.39675,0 1.9256,0.47268 1.5689,1.40223 -0.4852,1.26441 0.0481,2.59777 1.03905,2.59777 0.20988,0 0.99467,-1.45804 1.74396,-3.24009 z m -138.96408,0.60371 c 0.91211,-0.35002 2.08587,-1.76076 2.60835,-3.13498 2.00608,-5.27639 -4.55924,-9.62971 -8.53174,-5.65721 -2.03797,2.03797 -2.00216,5.29513 0.0836,7.59983 1.7554,1.93969 3.15017,2.22447 5.83983,1.19236 z m -4.92197,-4.03437 c -0.43067,-1.12232 -0.0735,-2.22121 0.96992,-2.98419 2.27132,-1.66082 4.62671,-0.53722 4.2601,2.03222 -0.38823,2.72101 -4.27938,3.42928 -5.23002,0.95197 z m 147.42715,-8.82925 c 0,-0.825 -0.675,-1.5 -1.5,-1.5 -0.825,0 -1.5,-0.675 -1.5,-1.5 0,-0.83333 0.88889,-1.5 2,-1.5 1.1,0 2,-0.62391 2,-1.38646 0,-1.35995 -8.58854,-3.35833 -9.69179,-2.25509 -0.85726,0.85726 0.71939,2.64155 2.33414,2.64155 2.30049,0 1.02106,2.4529 -1.47068,2.81955 -3.42295,0.50367 -2.53705,2.02871 1.57833,2.71703 2.0625,0.34496 4.2,0.77983 4.75,0.96637 0.55,0.18653 1.1125,0.37468 1.25,0.4181 0.1375,0.0434 0.25,-0.59605 0.25,-1.42105 z m -142.46288,-3.43994 c -0.27253,-0.44095 -1.96737,-1.10882 -3.76631,-1.48414 l -3.27081,-0.68241 3.42478,-1.47197 c 2.40387,-1.03318 3.11005,-1.78671 2.36898,-2.52778 -0.74107,-0.74107 -2.28366,-0.4294 -5.17478,1.04554 -6.36132,3.2453 -5.45969,5.22694 2.88102,6.33202 2.90403,0.38477 4.24064,-0.0729 3.53712,-1.21126 z m 144.26857,-15.3486 c 0.21549,-1.07735 -1.24925,-1.98419 -4.96357,-3.07301 -2.8981,-0.84955 -5.50995,-1.30395 -5.80412,-1.00978 -0.70471,0.70471 2.97577,3.37133 4.65313,3.37133 2.37125,0 1.36489,1.54038 -1.78251,2.72839 -1.70026,0.64178 -2.80763,1.62599 -2.46082,2.18714 0.88312,1.42893 9.96881,-2.25877 10.35789,-4.20407 z m -145.30453,2.28667 c 0.34055,-0.55103 -0.55997,-1.45019 -2.00116,-1.99813 -2.91086,-1.10671 -2.50547,-3 0.64235,-3 1.17249,0 1.85097,-0.526 1.61238,-1.25 -0.48113,-1.45998 -10.75473,-2.33776 -10.75473,-0.91889 0,0.51459 0.9,1.17098 2,1.45864 1.1,0.28766 2,1.24014 2,2.11663 0,0.92695 -0.83667,1.59362 -2,1.59362 -2.21329,0 -2.70961,1.547 -0.75,2.33772 2.26692,0.91472 8.62008,0.68151 9.25116,-0.33959 z m 141.96237,-13.95784 c 3.71803,-4.10837 -1.39629,-10.75219 -6.26931,-8.14423 -2.92826,1.56715 -3.65736,4.74815 -1.7541,7.6529 1.95083,2.97734 5.57288,3.19914 8.02341,0.49133 z m -6.28308,-3.29029 c 0.20974,-1.47682 1.00682,-2.25 2.31955,-2.25 1.31273,0 2.10981,0.77318 2.31955,2.25 0.26213,1.84568 -0.15469,2.25 -2.31955,2.25 -2.16486,0 -2.58168,-0.40432 -2.31955,-2.25 z m -142.18045,2.26913 c 0,-0.58722 1.80596,-0.73333 4.5,-0.36408 5.50904,0.7551 6.27932,-1.23062 0.87095,-2.24524 -2.33382,-0.43783 -3.80308,-1.34627 -4.11664,-2.54531 -0.66143,-2.52932 -1.8913,-2.34864 -2.62402,0.3855 -0.90467,3.37574 -0.75201,5.75 0.36971,5.75 0.55,0 1,-0.44139 1,-0.98087 z m 11.505,-10.02723 c 0.34267,-0.55445 -1.46808,-1.90445 -4.02389,-3 -5.52241,-2.36718 -5.48111,-2.36245 -5.48111,-0.6276 0,0.75037 1.6875,2.05664 3.75,2.90282 4.68641,1.9227 4.99094,1.96106 5.755,0.72478 z M 259.03058,280.803 c 2.31559,-1.16761 4.35584,-2.25079 4.5339,-2.40707 0.64608,-0.56708 -2.90229,-6.47001 -3.88926,-6.47001 -0.55779,0 -2.84977,0.93646 -5.0933,2.08102 -2.73046,1.39298 -3.74716,2.413 -3.07506,3.0851 0.6721,0.6721 2.01753,0.48 4.06932,-0.58102 3.7443,-1.93626 4.16456,-1.95709 4.16456,-0.20642 0,0.75827 -1.35,1.93787 -3,2.62132 -1.65,0.68345 -3,1.86305 -3,2.62132 0,1.80547 0.32355,1.75995 5.28984,-0.74424 z m -126.28984,-4.90846 c 0,-0.56727 -0.7875,-1.34242 -1.75,-1.72256 -1.38184,-0.54576 -1.13079,-0.80213 1.1933,-1.21861 3.95702,-0.70911 3.83924,-2.45199 -0.19197,-2.84071 -2.04391,-0.19709 -3.65988,-1.0816 -4.35749,-2.3851 -0.86851,-1.62283 -1.28984,-1.77893 -1.94412,-0.72028 -0.46655,0.75489 -0.4098,1.86428 0.12856,2.51296 0.67141,0.809 0.27477,1.3552 -1.3072,1.8001 -2.13152,0.59947 -2.02527,0.79101 1.72892,3.11702 4.25627,2.63709 6.5,3.14009 6.5,1.45718 z m 119.00578,-8.47702 c 4.5154,-6.56292 2.46116,-8.2748 -5.50578,-4.5882 l -4,1.85095 2.85166,1.13672 c 1.98289,0.79042 2.66737,1.61696 2.24675,2.71307 -0.55478,1.44574 -0.0307,3.39586 0.91257,3.39586 0.21611,0 1.78878,-2.02878 3.4948,-4.5084 z m -3.00578,-2.4916 c 0,-0.55 0.47656,-1 1.05902,-1 0.58246,0 0.7809,0.45 0.44098,1 -0.33992,0.55 -0.81648,1 -1.05902,1 -0.24254,0 -0.44098,-0.45 -0.44098,-1 z m -108.66448,0.33115 c 0.36786,-0.36787 -0.0365,-1.44819 -0.89848,-2.40072 -1.92697,-2.12928 -0.10612,-3.7306 2.13093,-1.87402 0.8142,0.67573 1.79107,0.91788 2.17083,0.53813 0.943,-0.94301 -0.84858,-3.58736 -4.04977,-5.97739 -2.87503,-2.14652 -4.74304,-1.59208 -2.74544,0.81488 1.78966,2.1564 0.4142,3.80836 -1.94447,2.33535 -3.44282,-2.15008 -3.43321,0.18954 0.0154,3.7476 3.48197,3.59248 4.17689,3.96027 5.321,2.81617 z m 99.22744,-7.26158 c -1.8226,-2.01395 -0.90046,-3.59456 1.1192,-1.91839 0.75139,0.6236 1.64442,0.85557 1.98451,0.51549 0.34008,-0.34009 0.10811,-1.23312 -0.51549,-1.98451 -1.67617,-2.01966 -0.0956,-2.9418 1.91839,-1.1192 2.77217,2.50878 3.12946,-0.0274 0.36918,-2.6205 l -2.49961,-2.34826 -3.67247,3.67247 -3.67247,3.67247 2.34826,2.49961 c 2.59315,2.76028 5.12928,2.40299 2.6205,-0.36918 z m -79.56296,-9.78518 c 0,-1.60619 -1.23341,-1.65098 -2.78333,-0.10106 -0.65084,0.65084 -1.49834,0.86834 -1.88334,0.48334 -0.385,-0.385 -0.1675,-1.2325 0.48334,-1.88334 1.82183,-1.82183 1.40461,-2.98834 -0.81667,-2.28333 -2.46615,0.78273 -2.6032,-0.33844 -0.25157,-2.058 2.77216,-2.02705 0.75847,-2.75549 -2.68901,-0.97273 l -3.12644,1.61675 2.74726,4.88726 2.74727,4.88726 2.78624,-1.64588 c 1.53244,-0.90523 2.78625,-2.22385 2.78625,-2.93027 z m 73.5805,0.77333 c 2.95635,-4.46734 2.34491,-7.90548 -0.70135,-3.94375 l -1.83468,2.38603 -0.0222,-3.75 c -0.0122,-2.0625 -0.41244,-3.75 -0.88935,-3.75 -1.44286,0 -6.25768,7.98908 -5.52717,9.17106 0.43414,0.70246 1.34458,0.2373 2.51513,-1.28503 l 1.83468,-2.38603 0.0222,3.75 c 0.0285,4.8 1.33513,4.74541 4.60274,-0.19228 z m -67.05348,-5.80772 -0.6898,-2.75 2.59464,2.43676 c 3.72472,3.49808 4.99896,1.6839 2.97969,-4.24232 -1.67293,-4.90978 -3.99323,-6.51764 -3.1668,-2.19444 0.53885,2.8188 -0.39136,3.2332 -2.24475,1 -1.39746,-1.68384 -4,-2.02232 -4,-0.52024 0,0.53887 0.72386,2.78887 1.60858,5 1.83174,4.57797 3.983,5.5143 2.91844,1.27024 z m 47.5012,-3.35481 c 1.33432,-4.95527 0.38717,-8.74236 -1.2868,-5.14519 -1.41221,3.03469 -3.74142,2.87906 -3.74142,-0.25 0,-4.00882 -1.66541,-2.88585 -2.88129,1.94282 -0.61529,2.44355 -1.11871,4.91855 -1.11871,5.5 0,1.86081 1.84188,1.13073 2.51747,-0.99787 0.83031,-2.61606 3.00816,-1.93621 2.90313,0.90626 -0.13789,3.73149 2.45464,2.32585 3.60762,-1.95602 z m -33.06798,2.15055 c 1.25173,-0.79176 1.19872,-1.21261 -0.37128,-2.94745 -2.18402,-2.4133 -1.45743,-5.09829 1.37966,-5.09829 2.12033,0 2.36796,0.64418 2.05257,5.33965 -0.15242,2.26929 0.17779,2.76641 1.64404,2.47499 1.48602,-0.29534 1.76851,-1.12021 1.48617,-4.33965 -0.42877,-4.88928 -1.63982,-6.47499 -4.9451,-6.47499 -4.34806,0 -8.31932,5.57605 -5.30018,7.44198 0.49837,0.30801 0.67088,1.45956 0.38337,2.55902 -0.56574,2.16337 1.13635,2.64781 3.67075,1.04474 z m 19.03976,-1.07712 c 0,-0.56727 -0.6,-1.26163 -1.33333,-1.54304 -0.73334,-0.2814 -1.33334,-1.84228 -1.33334,-3.46861 0,-1.79748 0.52283,-2.95697 1.33334,-2.95697 2.72899,0 1.21505,-1.79099 -1.91667,-2.26743 -4.41389,-0.67149 -5.15311,0.003 -3.22588,2.94459 1.51387,2.31045 1.51069,2.62689 -0.0436,4.34439 -0.92203,1.01883 -1.38078,2.33078 -1.01944,2.91544 0.84467,1.36672 7.53894,1.3948 7.53894,0.0316 z"
       id="path183" />
  </g>
</svg>
